<mxfile host="app.diagrams.net" modified="2024-06-20T17:50:47.164Z" agent="Mozilla/5.0 (Windows NT 10.0; Win64; x64) AppleWebKit/537.36 (KHTML, like Gecko) Chrome/126.0.0.0 Safari/537.36" etag="roD7laGvi0ClAROrU-V4" version="24.5.5" type="device">
  <diagram name="第 1 页" id="2DtfO1ELCiDd0sdO6VMK">
    <mxGraphModel dx="1221" dy="618" grid="1" gridSize="10" guides="1" tooltips="1" connect="1" arrows="1" fold="1" page="1" pageScale="1" pageWidth="827" pageHeight="1169" math="0" shadow="0">
      <root>
        <mxCell id="0" />
        <mxCell id="1" parent="0" />
        <mxCell id="24an1GAvWayU4iLh0d7s-6" style="rounded=0;orthogonalLoop=1;jettySize=auto;html=1;exitX=1;exitY=0.5;exitDx=0;exitDy=0;entryX=0;entryY=0.5;entryDx=0;entryDy=0;labelBackgroundColor=none;fontColor=default;" edge="1" parent="1" source="24an1GAvWayU4iLh0d7s-1" target="24an1GAvWayU4iLh0d7s-4">
          <mxGeometry relative="1" as="geometry" />
        </mxCell>
        <mxCell id="24an1GAvWayU4iLh0d7s-14" style="rounded=0;orthogonalLoop=1;jettySize=auto;html=1;exitX=1;exitY=0.5;exitDx=0;exitDy=0;entryX=0;entryY=0.5;entryDx=0;entryDy=0;labelBackgroundColor=none;fontColor=default;" edge="1" parent="1" source="24an1GAvWayU4iLh0d7s-1" target="24an1GAvWayU4iLh0d7s-5">
          <mxGeometry relative="1" as="geometry" />
        </mxCell>
        <mxCell id="24an1GAvWayU4iLh0d7s-1" value="&lt;font style=&quot;font-size: 36px;&quot;&gt;1&lt;/font&gt;" style="ellipse;whiteSpace=wrap;html=1;aspect=fixed;labelBackgroundColor=none;" vertex="1" parent="1">
          <mxGeometry x="160" y="90" width="80" height="80" as="geometry" />
        </mxCell>
        <mxCell id="24an1GAvWayU4iLh0d7s-12" style="rounded=0;orthogonalLoop=1;jettySize=auto;html=1;exitX=1;exitY=0.5;exitDx=0;exitDy=0;entryX=0;entryY=0.5;entryDx=0;entryDy=0;labelBackgroundColor=none;fontColor=default;" edge="1" parent="1" source="24an1GAvWayU4iLh0d7s-2" target="24an1GAvWayU4iLh0d7s-4">
          <mxGeometry relative="1" as="geometry" />
        </mxCell>
        <mxCell id="24an1GAvWayU4iLh0d7s-18" style="rounded=0;orthogonalLoop=1;jettySize=auto;html=1;exitX=1;exitY=0.5;exitDx=0;exitDy=0;entryX=0;entryY=0.5;entryDx=0;entryDy=0;labelBackgroundColor=none;fontColor=default;" edge="1" parent="1" source="24an1GAvWayU4iLh0d7s-2" target="24an1GAvWayU4iLh0d7s-5">
          <mxGeometry relative="1" as="geometry">
            <mxPoint x="390" y="380" as="targetPoint" />
          </mxGeometry>
        </mxCell>
        <mxCell id="24an1GAvWayU4iLh0d7s-2" value="&lt;font style=&quot;font-size: 36px;&quot;&gt;x&lt;sub&gt;2&lt;/sub&gt;&lt;/font&gt;" style="ellipse;whiteSpace=wrap;html=1;aspect=fixed;labelBackgroundColor=none;" vertex="1" parent="1">
          <mxGeometry x="160" y="410" width="80" height="80" as="geometry" />
        </mxCell>
        <mxCell id="24an1GAvWayU4iLh0d7s-8" style="rounded=0;orthogonalLoop=1;jettySize=auto;html=1;exitX=1;exitY=0.5;exitDx=0;exitDy=0;entryX=0;entryY=0.5;entryDx=0;entryDy=0;labelBackgroundColor=none;fontColor=default;" edge="1" parent="1" source="24an1GAvWayU4iLh0d7s-3" target="24an1GAvWayU4iLh0d7s-4">
          <mxGeometry relative="1" as="geometry" />
        </mxCell>
        <mxCell id="24an1GAvWayU4iLh0d7s-17" style="rounded=0;orthogonalLoop=1;jettySize=auto;html=1;exitX=1;exitY=0.5;exitDx=0;exitDy=0;entryX=0;entryY=0.5;entryDx=0;entryDy=0;labelBackgroundColor=none;fontColor=default;" edge="1" parent="1" source="24an1GAvWayU4iLh0d7s-3" target="24an1GAvWayU4iLh0d7s-5">
          <mxGeometry relative="1" as="geometry" />
        </mxCell>
        <mxCell id="24an1GAvWayU4iLh0d7s-3" value="&lt;font style=&quot;font-size: 36px;&quot;&gt;x&lt;sub&gt;1&lt;/sub&gt;&lt;/font&gt;" style="ellipse;whiteSpace=wrap;html=1;aspect=fixed;labelBackgroundColor=none;" vertex="1" parent="1">
          <mxGeometry x="160" y="250" width="80" height="80" as="geometry" />
        </mxCell>
        <mxCell id="24an1GAvWayU4iLh0d7s-26" style="rounded=0;orthogonalLoop=1;jettySize=auto;html=1;exitX=1;exitY=0.5;exitDx=0;exitDy=0;entryX=0;entryY=0.5;entryDx=0;entryDy=0;labelBackgroundColor=none;fontColor=default;" edge="1" parent="1" source="24an1GAvWayU4iLh0d7s-4" target="24an1GAvWayU4iLh0d7s-23">
          <mxGeometry relative="1" as="geometry" />
        </mxCell>
        <mxCell id="24an1GAvWayU4iLh0d7s-4" value="&lt;font style=&quot;font-size: 24px;&quot;&gt;OR&lt;/font&gt;" style="ellipse;whiteSpace=wrap;html=1;aspect=fixed;labelBackgroundColor=none;" vertex="1" parent="1">
          <mxGeometry x="414" y="170" width="80" height="80" as="geometry" />
        </mxCell>
        <mxCell id="24an1GAvWayU4iLh0d7s-27" style="rounded=0;orthogonalLoop=1;jettySize=auto;html=1;exitX=1;exitY=0.5;exitDx=0;exitDy=0;entryX=0;entryY=0.5;entryDx=0;entryDy=0;labelBackgroundColor=none;fontColor=default;" edge="1" parent="1" source="24an1GAvWayU4iLh0d7s-5" target="24an1GAvWayU4iLh0d7s-23">
          <mxGeometry relative="1" as="geometry">
            <mxPoint x="830" y="310" as="targetPoint" />
          </mxGeometry>
        </mxCell>
        <mxCell id="24an1GAvWayU4iLh0d7s-5" value="&lt;font style=&quot;font-size: 24px;&quot;&gt;NAND&lt;/font&gt;" style="ellipse;whiteSpace=wrap;html=1;aspect=fixed;labelBackgroundColor=none;" vertex="1" parent="1">
          <mxGeometry x="414" y="330" width="80" height="80" as="geometry" />
        </mxCell>
        <mxCell id="24an1GAvWayU4iLh0d7s-7" value="&lt;font style=&quot;font-size: 24px;&quot;&gt;-10&lt;/font&gt;" style="text;html=1;align=center;verticalAlign=middle;whiteSpace=wrap;rounded=0;labelBackgroundColor=none;" vertex="1" parent="1">
          <mxGeometry x="240" y="115" width="60" height="30" as="geometry" />
        </mxCell>
        <mxCell id="24an1GAvWayU4iLh0d7s-9" value="&lt;font style=&quot;font-size: 24px;&quot;&gt;20&lt;/font&gt;" style="text;html=1;align=center;verticalAlign=middle;whiteSpace=wrap;rounded=0;labelBackgroundColor=none;" vertex="1" parent="1">
          <mxGeometry x="230" y="250" width="60" height="30" as="geometry" />
        </mxCell>
        <mxCell id="24an1GAvWayU4iLh0d7s-13" value="&lt;font style=&quot;font-size: 24px;&quot;&gt;20&lt;/font&gt;" style="text;html=1;align=center;verticalAlign=middle;whiteSpace=wrap;rounded=0;labelBackgroundColor=none;" vertex="1" parent="1">
          <mxGeometry x="220" y="410" width="60" height="30" as="geometry" />
        </mxCell>
        <mxCell id="24an1GAvWayU4iLh0d7s-16" value="&lt;font style=&quot;font-size: 24px;&quot;&gt;30&lt;/font&gt;" style="text;html=1;align=center;verticalAlign=middle;whiteSpace=wrap;rounded=0;labelBackgroundColor=none;" vertex="1" parent="1">
          <mxGeometry x="360" y="300" width="60" height="30" as="geometry" />
        </mxCell>
        <mxCell id="24an1GAvWayU4iLh0d7s-19" value="&lt;font style=&quot;font-size: 24px;&quot;&gt;-20&lt;/font&gt;" style="text;html=1;align=center;verticalAlign=middle;whiteSpace=wrap;rounded=0;labelBackgroundColor=none;" vertex="1" parent="1">
          <mxGeometry x="330" y="340" width="60" height="30" as="geometry" />
        </mxCell>
        <mxCell id="24an1GAvWayU4iLh0d7s-21" value="&lt;font style=&quot;font-size: 24px;&quot;&gt;-20&lt;/font&gt;" style="text;html=1;align=center;verticalAlign=middle;whiteSpace=wrap;rounded=0;labelBackgroundColor=none;" vertex="1" parent="1">
          <mxGeometry x="340" y="390" width="60" height="30" as="geometry" />
        </mxCell>
        <mxCell id="24an1GAvWayU4iLh0d7s-24" style="rounded=0;orthogonalLoop=1;jettySize=auto;html=1;exitX=1;exitY=1;exitDx=0;exitDy=0;entryX=0;entryY=0.5;entryDx=0;entryDy=0;labelBackgroundColor=none;fontColor=default;" edge="1" parent="1" source="24an1GAvWayU4iLh0d7s-22" target="24an1GAvWayU4iLh0d7s-23">
          <mxGeometry relative="1" as="geometry" />
        </mxCell>
        <mxCell id="24an1GAvWayU4iLh0d7s-22" value="&lt;font style=&quot;font-size: 36px;&quot;&gt;1&lt;/font&gt;" style="ellipse;whiteSpace=wrap;html=1;aspect=fixed;labelBackgroundColor=none;" vertex="1" parent="1">
          <mxGeometry x="600" y="90" width="80" height="80" as="geometry" />
        </mxCell>
        <mxCell id="24an1GAvWayU4iLh0d7s-23" value="&lt;font style=&quot;font-size: 24px;&quot;&gt;AND&lt;/font&gt;" style="ellipse;whiteSpace=wrap;html=1;aspect=fixed;labelBackgroundColor=none;" vertex="1" parent="1">
          <mxGeometry x="747" y="250" width="80" height="80" as="geometry" />
        </mxCell>
        <mxCell id="24an1GAvWayU4iLh0d7s-25" value="&lt;font style=&quot;font-size: 24px;&quot;&gt;-30&lt;/font&gt;" style="text;html=1;align=center;verticalAlign=middle;whiteSpace=wrap;rounded=0;labelBackgroundColor=none;" vertex="1" parent="1">
          <mxGeometry x="680" y="150" width="60" height="30" as="geometry" />
        </mxCell>
        <mxCell id="24an1GAvWayU4iLh0d7s-28" value="&lt;font style=&quot;font-size: 24px;&quot;&gt;20&lt;/font&gt;" style="text;html=1;align=center;verticalAlign=middle;whiteSpace=wrap;rounded=0;labelBackgroundColor=none;" vertex="1" parent="1">
          <mxGeometry x="500" y="190" width="60" height="30" as="geometry" />
        </mxCell>
        <mxCell id="24an1GAvWayU4iLh0d7s-29" value="&lt;font style=&quot;font-size: 24px;&quot;&gt;20&lt;/font&gt;" style="text;html=1;align=center;verticalAlign=middle;whiteSpace=wrap;rounded=0;labelBackgroundColor=none;" vertex="1" parent="1">
          <mxGeometry x="500" y="330" width="60" height="30" as="geometry" />
        </mxCell>
      </root>
    </mxGraphModel>
  </diagram>
</mxfile>
